<mxfile host="65bd71144e">
    <diagram id="ClTSmF3IMciH1c6yhg28" name="Page-1">
        <mxGraphModel dx="1706" dy="1126" grid="1" gridSize="10" guides="1" tooltips="1" connect="1" arrows="1" fold="1" page="1" pageScale="1" pageWidth="850" pageHeight="1100" math="0" shadow="0">
            <root>
                <mxCell id="0"/>
                <mxCell id="1" parent="0"/>
                <mxCell id="2" value="Page" style="rounded=0;whiteSpace=wrap;html=1;fontStyle=1;verticalAlign=top;fontSize=16;" parent="1" vertex="1">
                    <mxGeometry x="200" y="120" width="600" height="880" as="geometry"/>
                </mxCell>
                <mxCell id="4" value="Section" style="rounded=0;whiteSpace=wrap;html=1;fontSize=18;verticalAlign=top;fontStyle=1" parent="1" vertex="1">
                    <mxGeometry x="240" y="160" width="520" height="390" as="geometry"/>
                </mxCell>
                <mxCell id="6" value="Widget" style="rounded=0;whiteSpace=wrap;html=1;fontSize=16;fontStyle=1;verticalAlign=top;" parent="1" vertex="1">
                    <mxGeometry x="270" y="200" width="460" height="150" as="geometry"/>
                </mxCell>
                <mxCell id="7" value="Widget" style="rounded=0;whiteSpace=wrap;html=1;fontSize=16;fontStyle=1;verticalAlign=top;" parent="1" vertex="1">
                    <mxGeometry x="270" y="370" width="460" height="150" as="geometry"/>
                </mxCell>
                <mxCell id="8" value="Section" style="rounded=0;whiteSpace=wrap;html=1;fontSize=18;verticalAlign=top;fontStyle=1" vertex="1" parent="1">
                    <mxGeometry x="240" y="590" width="520" height="380" as="geometry"/>
                </mxCell>
                <mxCell id="9" value="Widget&lt;br&gt;" style="rounded=0;whiteSpace=wrap;html=1;fontSize=16;fontStyle=1;verticalAlign=top;" vertex="1" parent="1">
                    <mxGeometry x="270" y="620" width="460" height="320" as="geometry"/>
                </mxCell>
            </root>
        </mxGraphModel>
    </diagram>
</mxfile>